<svg width="14" height="14" viewBox="0 0 14 14" fill="none" xmlns="http://www.w3.org/2000/svg">
<path d="M5.21722 13L1 7.3356L1.58413 5.9195H2.91934L4.28093 7.72556L5.82297 9.70671L10.6652 1H12.1576L13 2.04365L6.77378 13H5.21722Z" fill="#6B1A94"/>
<path d="M5.21722 13L1 7.3356L1.58413 5.9195M5.21722 13L11.4434 2.04365M5.21722 13H6.77378L13 2.04365M11.4434 2.04365L10.6652 1M11.4434 2.04365H13M10.6652 1H12.1576L13 2.04365M10.6652 1L5.82297 9.70671M1.58413 5.9195L5.21722 10.7633L5.82297 9.70671M1.58413 5.9195H2.91934L4.28093 7.72556L5.82297 9.70671" stroke="black" stroke-width="0.1"/>
</svg>
