<?xml version="1.0" encoding="utf-8"?>
<!-- Generator: Adobe Illustrator 23.0.1, SVG Export Plug-In . SVG Version: 6.00 Build 0)  -->
<svg version="1.1" id="Layer_1" xmlns="http://www.w3.org/2000/svg" xmlns:xlink="http://www.w3.org/1999/xlink" x="0px" y="0px"
	 viewBox="0 0 1024 1024" style="enable-background:new 0 0 1024 1024;" xml:space="preserve">
<style type="text/css">
	.st0{fill:#FFFFFF;}
</style>
<rect class="st0" width="1024" height="1024"/>
<path d="M1022.04,497.2L915.47,225.23v-0.01c-2.8-7.14-8.23-12.76-15.27-15.81c-7.05-3.04-14.86-3.15-21.98-0.3l-57.01,22.85
	c-14.52,5.81-21.7,22.4-15.99,36.96l2.73,6.97l-74.64,6.15c-4.81,0.4-9.69,0.41-14.49,0.08l-81.26-5.86
	c-11.08-0.8-22.15-1.73-33.21-2.66c-34.55-2.91-70.31-5.91-105.97-4.68l-2.45,0.08c-21.77,0.74-44.28,1.5-65.5,14.62
	c-2.64,1.63-5.25,3.44-7.84,5.33l-87.58,5c-12.2,0.72-23.95-3.28-33.21-11.18l-11.83-10.1l7.34-7.46
	c10.98-11.15,10.91-29.21-0.15-40.28l-43.43-43.43c-5.43-5.42-12.76-8.43-20.32-8.38c-7.68,0.03-14.88,3.06-20.27,8.53L8.19,389.79
	c-10.98,11.15-10.91,29.21,0.15,40.28l43.43,43.42c5.4,5.4,12.58,8.38,20.22,8.38c0.04,0,0.08,0,0.11,0
	c7.68-0.03,14.88-3.06,20.26-8.53l7.74-7.86l30.59,29.06c9.66,9.19,17.47,19.95,23.2,31.97l27.49,57.72
	c-14.68,20.57-11.21,49.37,8.56,65.73h0c8.71,7.2,19.21,10.76,29.72,11.03c-3.57,8.56-5.01,17.91-4.11,27.41
	c1.45,15.23,8.74,28.99,20.54,38.75l1.73,1.43c10.37,8.57,23.12,13.14,36.4,13.14c1.83,0,3.67-0.08,5.51-0.26
	c3.4-0.32,6.71-0.98,9.94-1.87c-1.29,18.2,5.86,36.75,20.97,49.24c10.87,8.99,24.06,13.37,37.17,13.37c8.46,0,16.89-1.83,24.65-5.42
	c1.57,11.73,7.33,22.94,17.14,31.06c0,0,0,0,0,0c9.05,7.49,20.04,11.13,30.96,11.13c14.02,0,27.93-6.01,37.54-17.63l18.86-22.81
	l92.83,47.23c6.77,3.44,14.02,5.1,21.17,5.1c14.34,0,28.33-6.66,37.4-18.9c6.01-8.11,9.11-17.67,9.12-27.53
	c7.74,4.1,16.1,6.21,24.43,6.21c16.07,0,31.89-7.39,42.16-21.26c7.53-10.16,11.06-22.33,10.19-34.75
	c7.29,3.27,15.02,4.93,22.72,4.93c17.07,0,33.87-7.85,44.79-22.59c9.15-12.35,12.75-27.5,10.13-42.65
	c-0.06-0.33-0.16-0.64-0.22-0.97c3.98,0.81,7.98,1.36,11.99,1.36c18.47,0,36.64-8.5,48.45-24.44c9.9-13.37,13.8-29.75,10.96-46.14
	c-1.23-7.1-3.7-13.73-7.17-19.77l54.63-66.63l1.24,3.17c2.81,7.15,8.23,12.77,15.28,15.82c3.64,1.57,7.48,2.36,11.33,2.36
	c3.6,0,7.2-0.69,10.64-2.07l57.02-22.84C1020.57,528.35,1027.74,511.76,1022.04,497.2z M72.02,460.68c-0.01,0-0.02,0-0.03,0
	c-1.97,0-3.83-0.77-5.23-2.17l-43.43-43.42c-2.86-2.86-2.88-7.54-0.04-10.41l204.95-208.13c1.4-1.43,3.12-2.11,5.27-2.21
	c1.97,0,3.83,0.77,5.22,2.17l43.43,43.43c2.86,2.86,2.88,7.53,0.04,10.41L77.25,458.48C75.86,459.88,74.01,460.67,72.02,460.68z
	 M199.8,594.97l30.15-36.47c1.21-1.46,2.53-2.76,3.95-3.9c9.93-7.99,24.48-8.2,34.7,0.24c11.65,9.63,13.29,26.95,3.68,38.61
	l-24.03,29.06l-6.15,7.44c-9.64,11.68-26.99,13.31-38.65,3.67C191.79,623.97,190.15,606.64,199.8,594.97z M277.74,720.35
	c-9.57,0.94-18.97-1.97-26.4-8.12c0,0,0,0,0,0l-1.73-1.43c-7.43-6.14-12.02-14.81-12.93-24.4c-0.91-9.6,1.97-18.98,8.12-26.41
	l35.14-42.5L288.6,607c0.01-0.01,0.01-0.02,0.02-0.02l16.2-19.59c6.14-7.43,14.81-12.02,24.41-12.93c1.16-0.11,2.32-0.17,3.47-0.17
	c8.36,0,16.4,2.88,22.93,8.28l1.73,1.43c15.34,12.68,17.5,35.47,4.82,50.81l-60.03,72.6C296,714.85,287.34,719.44,277.74,720.35z
	 M324.15,772.49c-15.81-13.07-18.04-36.58-4.97-52.39l58.59-70.88c7.35-8.89,18-13.49,28.72-13.49c8.35,0,16.75,2.79,23.68,8.52
	c15.81,13.08,18.04,36.58,4.97,52.39l-19.76,23.91c-0.72,0.76-1.45,1.5-2.12,2.32l-30.15,36.47c-0.69,0.83-1.28,1.7-1.91,2.56
	l-4.65,5.63C363.47,783.33,339.96,785.57,324.15,772.49z M441.76,807.83c-9.64,11.67-26.99,13.31-38.65,3.66
	c-11.25-9.3-13.08-25.71-4.55-37.33l32.14-38.88c9.81-10.57,26.29-11.87,37.54-2.57c11.67,9.65,13.31,26.99,3.66,38.65
	L441.76,807.83z M835.08,657.67c-12.45,16.82-35.83,20.84-53.2,9.19l-13.6-9.13c-0.08-0.06-0.16-0.12-0.24-0.18l-137.16-92.07
	c-1.82-1.23-3.88-1.81-5.93-1.81c-3.4,0.01-6.74,1.66-8.78,4.7c-0.41,0.61-0.74,1.24-1.01,1.89c-0.53,1.3-0.79,2.67-0.79,4.04
	c0.01,3.4,1.66,6.74,4.69,8.78l137.28,92.16c7.84,5.32,13.05,13.36,14.66,22.7c1.62,9.39-0.61,18.77-6.28,26.43
	c-11,14.85-31.64,18.4-46.99,8.12l-26.2-17.59c-0.14-0.09-0.26-0.2-0.4-0.3L577.1,638.07c-1.82-1.23-3.89-1.81-5.93-1.8
	c-3.4,0.01-6.74,1.65-8.78,4.7c-1.22,1.82-1.81,3.89-1.8,5.93c0.01,2.72,1.06,5.4,3.04,7.41c0.49,0.5,1.05,0.96,1.65,1.37
	l114.27,76.71c7.03,4.81,11.71,12.04,13.16,20.45c1.47,8.5-0.55,17-5.68,23.93c-9.96,13.44-28.65,16.67-42.53,7.35l-27.1-18.18
	c-0.18-0.13-0.35-0.27-0.53-0.4l-89.66-60.13c-0.65-0.43-1.32-0.77-2.02-1.05c-4.54-1.8-9.86-0.27-12.69,3.95
	c-2.69,4.02-2.24,9.18,0.73,12.7c0.63,0.74,1.32,1.44,2.17,2.01l11.77,7.9l78.08,52.39c5.7,3.9,9.5,9.78,10.68,16.59
	c1.19,6.91-0.45,13.82-4.62,19.45c-7.4,9.99-20.83,13.15-31.92,7.52l-88.78-45.17c14.35-20.54,10.78-49.08-8.87-65.33
	c-7.89-6.53-17.25-10.12-26.76-10.93c16.5-24.59,11.99-58.26-11.31-77.53c-15.1-12.48-34.65-16.02-52.28-11.34
	c1.48-18.05-5.55-36.52-20.54-48.91l-1.73-1.43c-11.8-9.75-26.71-14.31-41.92-12.89c-10.66,1.01-20.56,4.94-28.91,11.22
	c-2.18-9.05-6.96-17.52-14.22-24.23c-0.04-0.04-0.07-0.09-0.12-0.13c-0.61-0.59-1.23-1.16-1.88-1.69
	c-20.67-17.1-51.41-14.17-68.5,6.49l-17.4,21.05l-23.16-48.63c-6.85-14.39-16.18-27.25-27.74-38.23l-30.32-28.8l160.07-162.55
	l12.97,11.08c13.43,11.47,30.56,17.23,48.18,16.23l61.99-3.54c-0.08,0.09-0.14,0.18-0.21,0.28c-0.33,0.4-0.61,0.8-0.93,1.2
	c-1.12,1.43-2.2,2.85-3.2,4.27c-0.41,0.59-0.82,1.18-1.21,1.77c-0.89,1.32-1.76,2.65-2.6,3.98c-0.32,0.51-0.66,1.03-0.98,1.55
	c-1.07,1.74-2.13,3.5-3.2,5.28l-1.39,2.34c-2.09,3.73-4.07,7.27-6,10.71c-2.43,4.35-4.76,8.5-6.95,12.41
	c-1.03,1.84-2.02,3.61-3,5.36c-14.18,25.33-22.97,41.02-28.39,50.7c-0.26,0.47-0.51,0.92-0.76,1.36
	c-4.67,8.35-6.63,11.84-7.44,13.29c-0.1,0.19-0.19,0.34-0.26,0.47c-0.23,0.41-0.3,0.53-0.31,0.56c0,0.01,0,0.01,0,0.01
	c-1.14,2.04-2.04,4.11-2.83,6.17c-0.19,0.49-0.37,0.98-0.54,1.48c-0.68,1.99-1.25,3.99-1.62,5.98c-0.12,0.62-0.16,1.25-0.26,1.87
	c-0.19,1.32-0.32,2.63-0.38,3.94c-0.53,9.34,1.97,18.74,7.3,27.36c0.12,0.2,0.24,0.4,0.36,0.6c0.7,1.1,1.41,2.19,2.21,3.27
	c1.13,1.55,2.35,3.01,3.62,4.43c0.23,0.26,0.41,0.53,0.64,0.79c0.07,0.08,0.18,0.1,0.25,0.18c2.39,2.54,4.96,4.88,7.71,6.89
	c17.28,12.67,43.22,16.4,62.22-3.8l38.86-41.33c6.18-6.58,12.36-13.15,18.52-19.75c12.7-13.6,37.61-20.07,54.56-19.19
	c17.95,0.89,80.7,45.16,104.33,61.83c6.14,4.33,11.15,7.86,14.51,10.12L826.62,602.9c8.25,6.01,13.82,14.72,15.57,24.84
	C844.02,638.37,841.5,649,835.08,657.67z M842.11,587.77l-2.41-1.62c-0.81-0.6-1.58-1.24-2.42-1.81l-146.41-98.29l-38.18-25.68
	c-3.26-2.19-8.14-5.64-14.12-9.86c-46.25-32.62-93.26-64.57-115.5-65.68c-1.32-0.07-2.67-0.1-4.06-0.1
	c-21.33,0-50.1,7.85-67.04,25.98c-6.14,6.57-12.31,13.13-18.48,19.7l-38.86,41.33c-10.81,11.49-24.77,8.16-34.24,1.23
	c-2.49-1.82-4.81-4.06-6.82-6.55c-0.16-0.2-0.33-0.41-0.5-0.64c-0.84-1.09-1.6-2.23-2.3-3.42c-0.16-0.27-0.31-0.55-0.47-0.83
	c-0.71-1.3-1.35-2.63-1.86-4.01c-0.02-0.04-0.04-0.09-0.05-0.13c-2.26-6.23-2.29-13.2,1.5-19.97c0.61-1.09,52.94-94.57,52.93-94.57
	l1.25-2.09c4.57-7.63,8.17-13.67,14.24-19.92c0.12-0.13,0.24-0.23,0.36-0.36c2.19-2.24,4.44-4.41,6.73-6.47
	c0.07-0.06,0.14-0.12,0.2-0.18c2.4-2.15,4.85-4.2,7.33-6.12c0.01-0.01,0.02-0.03,0.03-0.04c2.85-2.2,5.71-4.26,8.6-6.05
	c16.41-10.15,34.32-10.75,55.05-11.46l2.46-0.08c34.42-1.2,69.53,1.76,103.46,4.62c11.15,0.94,22.3,1.88,33.46,2.68l81.26,5.86
	c5.9,0.43,11.87,0.39,17.76-0.09l80.98-6.67l53.41,136.3l32.25,82.31L842.11,587.77z M998.17,514.49l-57.02,22.84
	c-1.84,0.74-3.85,0.7-5.67-0.07c-1.83-0.79-3.23-2.24-3.95-4.09l-69.48-177.32l-29.16-74.42c0,0,0,0,0,0l-7.93-20.23
	c-1.47-3.77,0.38-8.05,4.13-9.55l57.01-22.85c0.89-0.36,1.82-0.53,2.75-0.53c1,0,1.99,0.2,2.93,0.61c1.82,0.79,3.23,2.24,3.95,4.09
	l106.56,271.97C1003.77,508.7,1001.92,512.98,998.17,514.49z"/>
</svg>
