<?xml version="1.0" encoding="utf-8"?>
<!-- Generator: Adobe Illustrator 16.0.0, SVG Export Plug-In . SVG Version: 6.00 Build 0)  -->
<!DOCTYPE svg PUBLIC "-//W3C//DTD SVG 1.1//EN" "http://www.w3.org/Graphics/SVG/1.1/DTD/svg11.dtd">
<svg version="1.1" id="Layer_1" xmlns="http://www.w3.org/2000/svg" xmlns:xlink="http://www.w3.org/1999/xlink" x="0px" y="0px"
	 width="1024px" height="1024px" viewBox="0 0 1024 1024" enable-background="new 0 0 1024 1024" xml:space="preserve">
<rect fill="none" width="1024" height="1024"/>
<path fill-rule="evenodd" clip-rule="evenodd" fill="#050505" d="M918.238,582.725c-49.939,42.413-99.741,86.553-151.251,126.926
	c-18.71,14.654-44.335,28.018-67.155,29.227c-71.813,3.821-144.253,1.618-216.27,1.728c-17.479,0.026-27.673-9.162-30.135-26.087
	c-3.001-20.785,10.672-34.678,34.966-34.909c43.343-0.408,86.675,0.176,130.03-0.286c27.445-0.271,47.563-14.355,56.433-37.886
	c15.763-41.814-12.884-81.931-60.121-82.285c-85.237-0.638-170.516,0.599-255.753-0.462
	c-64.108-0.788-121.361,16.829-165.393,64.191c-42.45,45.675-90.673,69.736-153.442,58.209c-0.717-0.137-1.22,0.055-1.937-0.026
	c-17.102-2.271-24.76,4.648-38.208,19.193C0,774.236,0,851,0,921c221.901,0,449.762,0,674.91,0
	c25.01-13,52.535-25.369,74.558-43.545c82.209-67.873,165.259-137.332,245.724-207.3c11.084-9.625,19.476-15.654,28.809-36.495
	c0-8.877,0-17.753,0-26.63C996,554.204,962.096,545.503,918.238,582.725z"/>
<path fill-rule="evenodd" clip-rule="evenodd" fill="#050505" d="M482.951,498.248c104.057,0,188.416-84.826,188.416-189.445
	c0-104.646-84.359-189.466-188.416-189.466s-188.416,84.82-188.416,189.466C294.535,413.422,378.895,498.248,482.951,498.248z
	 M481.546,322.941c-17.399-4.989-49.812-19.276-52.57-42.875C425.975,254.4,443,234.54,470,227.185V207h28v16.855
	c0,0,29.119,2.162,39.462,8.822l-5.746,29.063c0,0-25.701-8.727-43.505-7.49c-17.818,1.237-18.811,19.425-6.158,27.541
	c14.899,9.584,37.079,16.599,44.123,20.337c7.028,3.751,22.406,16.245,19.918,42.889c-2.487,26.645-24.966,41.502-44.839,43.174
	L501.419,415H470v-23.355c0,0-28.329-1.577-45.715-12.412l11.258-31.646c0,0,12.707,6.593,26.806,9.502
	c14.073,2.923,38.759,2.148,41.747-11.174C507.002,333.014,498.931,327.944,481.546,322.941z"/>
</svg>
