<svg width="20" height="20" viewBox="0 0 20 20" fill="none" xmlns="http://www.w3.org/2000/svg">
<g clip-path="url(#clip0_311_79)">
<mask id="mask0_311_79" style="mask-type:luminance" maskUnits="userSpaceOnUse" x="0" y="0" width="20" height="20">
<path d="M20 0H0V20H20V0Z" fill="white"/>
</mask>
<g mask="url(#mask0_311_79)">
<path d="M20 0H0V20H20V0Z" fill="white"/>
<path d="M16.1088 10.9714L14.8237 10.7253C14.4637 10.6551 14.0905 10.7163 13.7718 10.8978C13.4531 11.0794 13.2101 11.3692 13.087 11.7147L12.4665 13.4334C12.4359 13.5188 12.3879 13.597 12.3255 13.6631C12.2632 13.729 12.1879 13.7814 12.1043 13.8169C12.0207 13.8523 11.9306 13.87 11.8398 13.8689C11.7491 13.8678 11.6595 13.8479 11.5768 13.8104C9.26817 12.7314 7.33214 10.9909 6.01439 8.8097C5.96745 8.73 5.93783 8.64131 5.92749 8.54941C5.91713 8.45749 5.92628 8.36444 5.95432 8.2763C5.98236 8.18817 6.02866 8.10694 6.09021 8.0379C6.15177 7.96887 6.22717 7.91359 6.31153 7.87567L7.7204 7.24208C8.0555 7.09312 8.32611 6.82897 8.48313 6.49754C8.64014 6.16614 8.67316 5.78942 8.57618 5.43575L8.23215 4.17134C8.14237 3.83706 7.94229 3.54294 7.66436 3.33666C7.38643 3.13039 7.04695 3.02407 6.70102 3.03494L3.23233 3.13917C3.10138 3.14334 2.97418 3.18388 2.86495 3.25623C2.77892 3.28222 2.70137 3.33065 2.64026 3.39654C2.57917 3.46243 2.53672 3.54342 2.5173 3.63116C2.17417 5.2145 2.34755 6.98587 3.02022 8.75397C3.70673 10.5509 4.86579 12.2385 6.38214 13.6446C7.96288 15.1104 9.81217 16.1632 11.7298 16.6901C13.6296 17.2123 15.4653 17.1874 17.0387 16.6165C17.1143 16.5896 17.1823 16.5447 17.2368 16.4857C17.2504 16.4708 17.2631 16.4552 17.275 16.4388C17.295 16.4218 17.314 16.4038 17.3318 16.3845C17.3944 16.3169 17.443 16.2373 17.4744 16.1507C17.5059 16.064 17.5198 15.9719 17.5152 15.8798L17.3534 12.4144C17.3392 12.0687 17.2085 11.738 16.9826 11.476C16.7565 11.2141 16.4486 11.0362 16.1088 10.9714Z" fill="black"/>
</g>
</g>
<defs>
<clipPath id="clip0_311_79">
<rect width="20" height="20" fill="white"/>
</clipPath>
</defs>
</svg>
