<svg width="892" height="1024" viewBox="0 0 892 1024" fill="none" xmlns="http://www.w3.org/2000/svg">
<path d="M730.56 853.26C730.56 890.05 700.63 919.97 663.84 919.97H565.77L539.31 950.69H663.84C717.65 950.69 761.27 907.07 761.27 853.26V693L730.56 728.66V853.26Z" fill="black"/>
<path d="M708.46 853.26V754.32L584.81 897.87H663.84C688.44 897.87 708.46 877.86 708.46 853.26Z" fill="black"/>
<path d="M120.43 795.4C114.33 795.4 109.38 790.45 109.38 784.35C109.38 778.25 114.33 773.3 120.43 773.3H472.54L552.77 680.15H120.43C114.33 680.15 109.38 675.2 109.38 669.1C109.38 663 114.33 658.05 120.43 658.05H571.81L652.04 564.9H120.43C114.33 564.9 109.38 559.95 109.38 553.85C109.38 547.75 114.33 542.8 120.43 542.8H652.71C658.03 542.8 662.47 546.56 663.52 551.57L708.46 499.39V277.49H574.75C524.6 277.49 483.79 236.68 483.79 186.52V52.82H97.7001C73.0901 52.82 53.0801 72.84 53.0801 97.43V853.26C53.0801 877.86 73.1001 897.87 97.7001 897.87H365.24L453.5 795.4H120.43ZM652.71 427.54C658.81 427.54 663.76 432.49 663.76 438.59C663.76 444.69 658.81 449.64 652.71 449.64H120.43C114.33 449.64 109.38 444.69 109.38 438.59C109.38 432.49 114.33 427.54 120.43 427.54H652.71ZM108.83 157.58C108.83 141.19 122.12 127.9 138.51 127.9H308.91C325.3 127.9 338.59 141.19 338.59 157.58V307.59C338.59 323.98 325.3 337.27 308.91 337.27H138.51C122.12 337.27 108.83 323.98 108.83 307.59V157.58Z" fill="black"/>
<path d="M870.56 438.66C845.03 416.68 806.39 419.56 784.41 445.08L377.77 917.18C377.69 917.27 377.65 917.39 377.58 917.48C376.96 918.24 376.48 919.08 376.02 919.95C375.83 920.31 375.57 920.63 375.41 921C374.86 922.28 374.47 923.63 374.3 925.05L364.44 1007.52C363.86 1012.39 365.74 1017.23 369.45 1020.43C372.16 1022.76 375.58 1024 379.07 1024C380.37 1024 381.68 1023.83 382.97 1023.47L463.07 1001.49C464.45 1001.11 465.72 1000.53 466.9 999.8C467.25 999.59 467.52 999.28 467.85 999.04C468.64 998.46 469.41 997.86 470.07 997.13C470.15 997.04 470.26 996.99 470.34 996.9L876.98 524.8C898.95 499.28 896.07 460.64 870.56 438.66ZM854.64 505.57L457.63 966.51L409.72 925.25L806.74 464.32C818.11 451.12 838.12 449.62 851.32 461C864.53 472.36 866.02 492.37 854.64 505.57Z" fill="black"/>
<path d="M730.56 473.73L761.28 438.07V277.49H730.56V473.73Z" fill="black"/>
<path d="M483.79 0H97.6898C43.8798 0 0.259766 43.62 0.259766 97.43V853.26C0.259766 907.07 43.8798 950.69 97.6898 950.69H348.99L352.66 919.97H97.6998C60.9098 919.97 30.9798 890.04 30.9798 853.26V97.43C30.9798 60.64 60.9098 30.71 97.6998 30.71H483.79V0Z" fill="black"/>
<path d="M505.89 182.1V11.05L750.23 255.39H579.18C538.7 255.39 505.89 222.58 505.89 182.1Z" fill="black"/>
</svg>
