<svg width="145" height="145" viewBox="0 0 145 145" fill="none" xmlns="http://www.w3.org/2000/svg">
<g clip-path="url(#clip0_27_50)">
<rect width="145" height="145" fill="#F0D0FF"/>
<path d="M108.148 91.3157L98.8313 89.5309C96.2214 89.0219 93.5155 89.4658 91.205 90.7821C88.8946 92.0984 87.133 94.1997 86.2401 96.7044L81.7417 109.165C81.5197 109.784 81.1718 110.351 80.7197 110.83C80.2677 111.308 79.7215 111.688 79.1154 111.945C78.5093 112.202 77.8566 112.33 77.1984 112.322C76.5402 112.314 75.8909 112.17 75.2912 111.898C58.5537 104.075 44.5175 91.4566 34.9638 75.643C34.6235 75.0652 34.4088 74.4222 34.3338 73.7559C34.2587 73.0895 34.325 72.4149 34.5283 71.7759C34.7316 71.1369 35.0673 70.548 35.5135 70.0475C35.9598 69.547 36.5065 69.1462 37.1181 68.8713L47.3324 64.2778C49.7619 63.1978 51.7238 61.2827 52.8622 58.8799C54.0005 56.4772 54.2399 53.746 53.5368 51.1819L51.0426 42.0149C50.3917 39.5914 48.9411 37.459 46.9261 35.9635C44.9111 34.468 42.4499 33.6972 39.9419 33.776L14.7939 34.5317C13.8445 34.5619 12.9223 34.8558 12.1304 35.3804C11.5067 35.5688 10.9444 35.9199 10.5014 36.3976C10.0585 36.8753 9.75073 37.4625 9.60994 38.0986C7.12226 49.5778 8.37922 62.4203 13.2561 75.239C18.2333 88.267 26.6365 100.502 37.63 110.696C49.0904 121.323 62.4977 128.956 76.4008 132.776C90.1738 136.562 103.483 136.381 114.89 132.242C115.438 132.047 115.931 131.722 116.326 131.294C116.425 131.186 116.517 131.073 116.603 130.954C116.748 130.831 116.886 130.7 117.015 130.56C117.469 130.07 117.821 129.493 118.049 128.865C118.277 128.237 118.378 127.569 118.345 126.901L117.172 101.777C117.069 99.271 116.121 96.8734 114.483 94.974C112.844 93.0747 110.612 91.7854 108.148 91.3157Z" fill="black"/>
<path d="M107.483 66.4171C106.941 66.8944 106.33 67.2765 105.672 67.5486C104.082 68.1929 102.314 68.1477 100.756 67.4231C99.1974 66.6985 97.9767 65.3536 97.3616 63.684C96.4903 61.3289 95.2574 59.1399 93.712 57.2039C91.8406 54.8528 89.5357 52.924 86.9361 51.5335C85.4787 50.6827 84.3928 49.2704 83.9074 47.5945C83.4221 45.9186 83.5752 44.1101 84.3346 42.5506C85.0939 40.991 86.4 39.8023 87.9775 39.2353C89.5549 38.6682 91.2803 38.7671 92.7897 39.511C100.371 43.6032 106.26 50.4746 109.342 58.8238C109.824 60.1351 109.904 61.5719 109.57 62.9333C109.237 64.2947 108.508 65.5127 107.483 66.4171Z" fill="black"/>
<path d="M132.265 64.81C131.44 65.5971 130.435 66.1453 129.348 66.4006C128.26 66.6559 127.129 66.6095 126.064 66.266C124.998 65.9226 124.037 65.2938 123.273 64.4415C122.509 63.5893 121.97 62.5429 121.708 61.4052C119.755 52.9563 115.629 45.2339 109.782 39.0816C103.935 32.9292 96.5913 28.5835 88.5531 26.5193C86.8984 26.0965 85.4713 25.0004 84.5858 23.4721C83.7003 21.9437 83.4289 20.1084 83.8312 18.3698C84.2336 16.6311 85.2768 15.1317 86.7313 14.2012C88.1859 13.2708 89.9326 12.9856 91.5873 13.4084C101.918 16.0579 111.357 21.6406 118.871 29.5463C126.386 37.4519 131.688 47.3763 134.197 58.2343C134.468 59.4116 134.432 60.6441 134.092 61.8015C133.752 62.9589 133.12 63.9984 132.265 64.81Z" fill="black"/>
</g>
<defs>
<clipPath id="clip0_27_50">
<rect width="145" height="145" fill="white"/>
</clipPath>
</defs>
</svg>
