<svg width="20" height="20" viewBox="0 0 20 20" fill="none" xmlns="http://www.w3.org/2000/svg">
<g clip-path="url(#clip0_312_105)">
<mask id="mask0_312_105" style="mask-type:luminance" maskUnits="userSpaceOnUse" x="0" y="0" width="20" height="20">
<path d="M20 0H0V20H20V0Z" fill="white"/>
</mask>
<g mask="url(#mask0_312_105)">
<path d="M20 0H0V20H20V0Z" fill="white"/>
</g>
<path d="M7.5 13.5C4.41217 12.8264 2.75249 8.66667 2 6H4.82183C6 10.5714 8.65953 11.4571 8.20803 11V6H11.0299C11.0299 8.5 11 9.5 11 10.5C11 11.1425 13.7475 7.52381 14.5 6H17C17.903 6 14.8169 9.47619 13.5 11L15.5 12.5L17 14H13.8517L12.5 13L11.0299 12C10.8419 12 11.0295 12.6274 11.0299 13.9961C11.1008 14 11.1042 14 11.0299 14C11.0299 13.9987 11.0299 13.9974 11.0299 13.9961C10.7417 13.9805 9.33904 13.9012 7.5 13.5Z" fill="black"/>
<path d="M2 6C2.75249 8.66667 4.41217 12.8264 7.5 13.5C9.79197 14 11.4061 14 11.0299 14C11.0299 12.6286 10.8417 12 11.0299 12L12.5 13L13.8517 14H17L15.5 12.5L13.5 11C14.8169 9.47619 17.903 6 17 6C16.097 6 15.2525 6 14.5 6C13.7475 7.52381 11 11.1425 11 10.5C11 9.5 11.0299 8.5 11.0299 6H8.20803C8.20803 7.5 8.20803 9 8.20803 11C8.65953 11.4571 6 10.5714 4.82183 6H2Z" stroke="black" stroke-width="0.3"/>
</g>
<defs>
<clipPath id="clip0_312_105">
<rect width="20" height="20" fill="white"/>
</clipPath>
</defs>
</svg>
